<svg width="15" height="20" viewBox="0 0 15 20" fill="none" xmlns="http://www.w3.org/2000/svg">
<path d="M0.546875 0.0852875C0.878906 -0.0670663 1.26953 -0.0123752 1.54688 0.225922L3.125 1.57757L4.70312 0.225922C5.05469 -0.0748793 5.57422 -0.0748793 5.92188 0.225922L7.5 1.57757L9.07812 0.225922C9.42969 -0.0748793 9.94922 -0.0748793 10.2969 0.225922L11.875 1.57757L13.4531 0.225922C13.7305 -0.0123752 14.1211 -0.0670663 14.4531 0.0852875C14.7852 0.237641 15 0.569694 15 0.936906V19.0631C15 19.4303 14.7852 19.7624 14.4531 19.9147C14.1211 20.0671 13.7305 20.0124 13.4531 19.7741L11.875 18.4224L10.2969 19.7741C9.94531 20.0749 9.42578 20.0749 9.07812 19.7741L7.5 18.4224L5.92188 19.7741C5.57031 20.0749 5.05078 20.0749 4.70312 19.7741L3.125 18.4224L1.54688 19.7741C1.26953 20.0124 0.878906 20.0671 0.546875 19.9147C0.214844 19.7624 0 19.4303 0 19.0631V0.936906C0 0.569694 0.214844 0.237641 0.546875 0.0852875ZM3.75 5.62471C3.40625 5.62471 3.125 5.90598 3.125 6.24975C3.125 6.59353 3.40625 6.8748 3.75 6.8748H11.25C11.5938 6.8748 11.875 6.59353 11.875 6.24975C11.875 5.90598 11.5938 5.62471 11.25 5.62471H3.75ZM3.125 13.7502C3.125 14.094 3.40625 14.3753 3.75 14.3753H11.25C11.5938 14.3753 11.875 14.094 11.875 13.7502C11.875 13.4065 11.5938 13.1252 11.25 13.1252H3.75C3.40625 13.1252 3.125 13.4065 3.125 13.7502ZM3.75 9.37496C3.40625 9.37496 3.125 9.65623 3.125 10C3.125 10.3438 3.40625 10.625 3.75 10.625H11.25C11.5938 10.625 11.875 10.3438 11.875 10C11.875 9.65623 11.5938 9.37496 11.25 9.37496H3.75Z" fill="black"/>
</svg>
